# 3ds Max Wavefront OBJ Exporter v0.99 - (c)2007 guruware
# File Created: 09.04.2020 11:20:24

mtllib 25mm base LOTR.mtl

#
# object Object001
#

v  0.4493 -0.0005 0.2000
v  0.3979 -0.0005 0.2891
v  0.3291 -0.0005 0.3655
v  0.2459 -0.0005 0.4259
v  0.1520 -0.0005 0.4677
v  0.0514 -0.0005 0.4891
v  -0.0514 -0.0005 0.4891
v  -0.1520 -0.0005 0.4677
v  -0.2459 -0.0005 0.4259
v  -0.3291 -0.0005 0.3655
v  -0.3979 -0.0005 0.2891
v  -0.4493 -0.0005 0.2000
v  -0.4811 -0.0005 0.1023
v  -0.4918 -0.0005 0.0000
v  -0.4811 -0.0005 -0.1023
v  -0.4493 -0.0005 -0.2000
v  -0.3979 -0.0005 -0.2891
v  -0.3291 -0.0005 -0.3655
v  -0.2459 -0.0005 -0.4259
v  -0.1520 -0.0005 -0.4677
v  -0.0514 -0.0005 -0.4891
v  0.0514 -0.0005 -0.4891
v  0.1520 -0.0005 -0.4677
v  0.2459 -0.0005 -0.4259
v  0.3291 -0.0005 -0.3655
v  0.3979 -0.0005 -0.2891
v  0.4493 -0.0005 -0.2000
v  0.4811 -0.0005 -0.1023
v  0.4918 -0.0005 0.0000
v  0.4811 -0.0005 0.1023
v  0.4473 0.1178 -0.0951
v  0.4573 0.1178 -0.0000
v  0.4178 0.1178 -0.1860
v  0.3700 0.1178 -0.2688
v  0.3060 0.1178 -0.3398
v  0.2287 0.1178 -0.3960
v  0.1413 0.1178 -0.4349
v  0.0478 0.1178 -0.4548
v  -0.0478 0.1178 -0.4548
v  -0.1413 0.1178 -0.4349
v  -0.2287 0.1178 -0.3960
v  -0.3060 0.1178 -0.3398
v  -0.3700 0.1178 -0.2688
v  -0.4178 0.1178 -0.1860
v  -0.4473 0.1178 -0.0951
v  -0.4573 0.1178 -0.0000
v  -0.4473 0.1178 0.0951
v  -0.4178 0.1178 0.1860
v  -0.3700 0.1178 0.2688
v  -0.3060 0.1178 0.3398
v  -0.2287 0.1178 0.3960
v  -0.1413 0.1178 0.4349
v  -0.0478 0.1178 0.4548
v  0.0478 0.1178 0.4548
v  0.1413 0.1178 0.4349
v  0.2287 0.1178 0.3960
v  0.3060 0.1178 0.3398
v  0.3700 0.1178 0.2688
v  0.4178 0.1178 0.1860
v  0.4473 0.1178 0.0951
# 60 vertices

vn 0.0000 -1.0000 -0.0000
vn 0.9863 0.1653 0.0000
vn 0.9647 0.1653 -0.2051
vn 0.9010 0.1653 -0.4011
vn 0.7979 0.1653 -0.5797
vn 0.6599 0.1653 -0.7329
vn 0.4931 0.1653 -0.8541
vn 0.3048 0.1653 -0.9380
vn 0.1031 0.1653 -0.9808
vn -0.1031 0.1653 -0.9808
vn -0.3048 0.1653 -0.9380
vn -0.4931 0.1653 -0.8541
vn -0.6599 0.1653 -0.7329
vn -0.7979 0.1653 -0.5797
vn -0.9010 0.1653 -0.4011
vn -0.9647 0.1653 -0.2051
vn -0.9863 0.1653 0.0000
vn -0.9863 0.1653 -0.0000
vn -0.9647 0.1653 0.2051
vn -0.9010 0.1653 0.4011
vn -0.7979 0.1653 0.5797
vn -0.6599 0.1653 0.7329
vn -0.4931 0.1653 0.8541
vn -0.3048 0.1653 0.9380
vn -0.1031 0.1653 0.9808
vn 0.1031 0.1653 0.9808
vn 0.3048 0.1653 0.9380
vn 0.4931 0.1653 0.8541
vn 0.6599 0.1653 0.7329
vn 0.7979 0.1653 0.5797
vn 0.9010 0.1653 0.4011
vn 0.9647 0.1653 0.2051
vn -0.0000 1.0000 0.0000
# 33 vertex normals

vt 0.2768 0.7033 0.0000
vt 0.2461 0.6501 0.0000
vt 0.2271 0.5917 0.0000
vt 0.2207 0.5307 0.0000
vt 0.2271 0.4696 0.0000
vt 0.2461 0.4112 0.0000
vt 0.2768 0.3580 0.0000
vt 0.3179 0.3124 0.0000
vt 0.3675 0.2763 0.0000
vt 0.4236 0.2514 0.0000
vt 0.4837 0.2386 0.0000
vt 0.5451 0.2386 0.0000
vt 0.6051 0.2514 0.0000
vt 0.6612 0.2763 0.0000
vt 0.7109 0.3124 0.0000
vt 0.7520 0.3580 0.0000
vt 0.7827 0.4112 0.0000
vt 0.8016 0.4696 0.0000
vt 0.8081 0.5307 0.0000
vt 0.8016 0.5917 0.0000
vt 0.7827 0.6501 0.0000
vt 0.7520 0.7033 0.0000
vt 0.7109 0.7489 0.0000
vt 0.6612 0.7850 0.0000
vt 0.6051 0.8100 0.0000
vt 0.5451 0.8227 0.0000
vt 0.4837 0.8227 0.0000
vt 0.4236 0.8100 0.0000
vt 0.3675 0.7850 0.0000
vt 0.3179 0.7489 0.0000
vt 0.8081 0.5309 0.0000
vt 0.8016 0.5920 0.0000
vt 0.7822 0.5878 0.0000
vt 0.7882 0.5309 0.0000
vt 0.7827 0.6504 0.0000
vt 0.7645 0.6423 0.0000
vt 0.7520 0.7035 0.0000
vt 0.7359 0.6919 0.0000
vt 0.7109 0.7491 0.0000
vt 0.6976 0.7344 0.0000
vt 0.6612 0.7852 0.0000
vt 0.6513 0.7680 0.0000
vt 0.6051 0.8102 0.0000
vt 0.5990 0.7913 0.0000
vt 0.5451 0.8230 0.0000
vt 0.5430 0.8032 0.0000
vt 0.4837 0.8230 0.0000
vt 0.4858 0.8032 0.0000
vt 0.4236 0.8102 0.0000
vt 0.4298 0.7913 0.0000
vt 0.3675 0.7852 0.0000
vt 0.3775 0.7680 0.0000
vt 0.3179 0.7491 0.0000
vt 0.3312 0.7344 0.0000
vt 0.2768 0.7035 0.0000
vt 0.2929 0.6919 0.0000
vt 0.2461 0.6504 0.0000
vt 0.2642 0.6423 0.0000
vt 0.2271 0.5920 0.0000
vt 0.2465 0.5878 0.0000
vt 0.2207 0.5309 0.0000
vt 0.2406 0.5309 0.0000
vt 0.2271 0.4698 0.0000
vt 0.2465 0.4740 0.0000
vt 0.2461 0.4115 0.0000
vt 0.2642 0.4195 0.0000
vt 0.2768 0.3583 0.0000
vt 0.2929 0.3700 0.0000
vt 0.3179 0.3127 0.0000
vt 0.3312 0.3274 0.0000
vt 0.3675 0.2766 0.0000
vt 0.3775 0.2938 0.0000
vt 0.4236 0.2516 0.0000
vt 0.4298 0.2705 0.0000
vt 0.4837 0.2388 0.0000
vt 0.4858 0.2586 0.0000
vt 0.5451 0.2388 0.0000
vt 0.5430 0.2586 0.0000
vt 0.6051 0.2516 0.0000
vt 0.5990 0.2705 0.0000
vt 0.6612 0.2766 0.0000
vt 0.6513 0.2938 0.0000
vt 0.7109 0.3127 0.0000
vt 0.6976 0.3274 0.0000
vt 0.7520 0.3583 0.0000
vt 0.7359 0.3700 0.0000
vt 0.7827 0.4115 0.0000
vt 0.7645 0.4195 0.0000
vt 0.8016 0.4698 0.0000
vt 0.7822 0.4740 0.0000
vt 0.7594 0.5309 0.0000
vt 0.7541 0.5818 0.0000
vt 0.7383 0.6306 0.0000
vt 0.7126 0.6749 0.0000
vt 0.6784 0.7130 0.0000
vt 0.6369 0.7431 0.0000
vt 0.5901 0.7639 0.0000
vt 0.5400 0.7746 0.0000
vt 0.4888 0.7746 0.0000
vt 0.4387 0.7639 0.0000
vt 0.3919 0.7431 0.0000
vt 0.3504 0.7130 0.0000
vt 0.3161 0.6749 0.0000
vt 0.2905 0.6306 0.0000
vt 0.2747 0.5818 0.0000
vt 0.2693 0.5309 0.0000
vt 0.2747 0.4799 0.0000
vt 0.2905 0.4312 0.0000
vt 0.3161 0.3869 0.0000
vt 0.3504 0.3488 0.0000
vt 0.3919 0.3187 0.0000
vt 0.4387 0.2978 0.0000
vt 0.4888 0.2872 0.0000
vt 0.5400 0.2872 0.0000
vt 0.5901 0.2978 0.0000
vt 0.6369 0.3187 0.0000
vt 0.6784 0.3488 0.0000
vt 0.7126 0.3869 0.0000
vt 0.7383 0.4312 0.0000
vt 0.7541 0.4799 0.0000
# 120 texture coords

o Object001
g Object001
usemtl Material__552
s 1
f 1/1/1 2/2/1 3/3/1 
f 3/3/1 4/4/1 5/5/1 
f 5/5/1 6/6/1 7/7/1 
f 3/3/1 5/5/1 7/7/1 
f 7/7/1 8/8/1 9/9/1 
f 9/9/1 10/10/1 11/11/1 
f 7/7/1 9/9/1 11/11/1 
f 3/3/1 7/7/1 11/11/1 
f 11/11/1 12/12/1 13/13/1 
f 13/13/1 14/14/1 15/15/1 
f 11/11/1 13/13/1 15/15/1 
f 15/15/1 16/16/1 17/17/1 
f 17/17/1 18/18/1 19/19/1 
f 15/15/1 17/17/1 19/19/1 
f 11/11/1 15/15/1 19/19/1 
f 19/19/1 20/20/1 21/21/1 
f 21/21/1 22/22/1 23/23/1 
f 19/19/1 21/21/1 23/23/1 
f 23/23/1 24/24/1 25/25/1 
f 25/25/1 26/26/1 27/27/1 
f 23/23/1 25/25/1 27/27/1 
f 19/19/1 23/23/1 27/27/1 
f 11/11/1 19/19/1 27/27/1 
f 3/3/1 11/11/1 27/27/1 
f 27/27/1 28/28/1 29/29/1 
f 3/3/1 27/27/1 29/29/1 
f 1/1/1 3/3/1 29/29/1 
f 30/30/1 1/1/1 29/29/1 
s 8
f 29/31/2 28/32/3 31/33/3 
f 31/33/3 32/34/2 29/31/2 
f 28/32/3 27/35/4 33/36/4 
f 33/36/4 31/33/3 28/32/3 
f 27/35/4 26/37/5 34/38/5 
f 34/38/5 33/36/4 27/35/4 
f 26/37/5 25/39/6 35/40/6 
f 35/40/6 34/38/5 26/37/5 
f 25/39/6 24/41/7 36/42/7 
f 36/42/7 35/40/6 25/39/6 
f 24/41/7 23/43/8 37/44/8 
f 37/44/8 36/42/7 24/41/7 
f 23/43/8 22/45/9 38/46/9 
f 38/46/9 37/44/8 23/43/8 
f 22/45/9 21/47/10 39/48/10 
f 39/48/10 38/46/9 22/45/9 
f 21/47/10 20/49/11 40/50/11 
f 40/50/11 39/48/10 21/47/10 
f 20/49/11 19/51/12 41/52/12 
f 41/52/12 40/50/11 20/49/11 
f 19/51/12 18/53/13 42/54/13 
f 42/54/13 41/52/12 19/51/12 
f 18/53/13 17/55/14 43/56/14 
f 43/56/14 42/54/13 18/53/13 
f 17/55/14 16/57/15 44/58/15 
f 44/58/15 43/56/14 17/55/14 
f 16/57/15 15/59/16 45/60/16 
f 45/60/16 44/58/15 16/57/15 
f 15/59/16 14/61/17 46/62/18 
f 46/62/18 45/60/16 15/59/16 
f 14/61/17 13/63/19 47/64/19 
f 47/64/19 46/62/18 14/61/17 
f 13/63/19 12/65/20 48/66/20 
f 48/66/20 47/64/19 13/63/19 
f 12/65/20 11/67/21 49/68/21 
f 49/68/21 48/66/20 12/65/20 
f 11/67/21 10/69/22 50/70/22 
f 50/70/22 49/68/21 11/67/21 
f 10/69/22 9/71/23 51/72/23 
f 51/72/23 50/70/22 10/69/22 
f 9/71/23 8/73/24 52/74/24 
f 52/74/24 51/72/23 9/71/23 
f 8/73/24 7/75/25 53/76/25 
f 53/76/25 52/74/24 8/73/24 
f 7/75/25 6/77/26 54/78/26 
f 54/78/26 53/76/25 7/75/25 
f 6/77/26 5/79/27 55/80/27 
f 55/80/27 54/78/26 6/77/26 
f 5/79/27 4/81/28 56/82/28 
f 56/82/28 55/80/27 5/79/27 
f 4/81/28 3/83/29 57/84/29 
f 57/84/29 56/82/28 4/81/28 
f 3/83/29 2/85/30 58/86/30 
f 58/86/30 57/84/29 3/83/29 
f 2/85/30 1/87/31 59/88/31 
f 59/88/31 58/86/30 2/85/30 
f 1/87/31 30/89/32 60/90/32 
f 60/90/32 59/88/31 1/87/31 
f 30/89/32 29/31/2 32/34/2 
f 32/34/2 60/90/32 30/89/32 
s 1
f 32/91/33 31/92/33 33/93/33 
f 33/93/33 34/94/33 35/95/33 
f 35/95/33 36/96/33 37/97/33 
f 33/93/33 35/95/33 37/97/33 
f 37/97/33 38/98/33 39/99/33 
f 39/99/33 40/100/33 41/101/33 
f 37/97/33 39/99/33 41/101/33 
f 33/93/33 37/97/33 41/101/33 
f 41/101/33 42/102/33 43/103/33 
f 43/103/33 44/104/33 45/105/33 
f 41/101/33 43/103/33 45/105/33 
f 45/105/33 46/106/33 47/107/33 
f 47/107/33 48/108/33 49/109/33 
f 45/105/33 47/107/33 49/109/33 
f 41/101/33 45/105/33 49/109/33 
f 49/109/33 50/110/33 51/111/33 
f 51/111/33 52/112/33 53/113/33 
f 49/109/33 51/111/33 53/113/33 
f 53/113/33 54/114/33 55/115/33 
f 55/115/33 56/116/33 57/117/33 
f 53/113/33 55/115/33 57/117/33 
f 49/109/33 53/113/33 57/117/33 
f 41/101/33 49/109/33 57/117/33 
f 33/93/33 41/101/33 57/117/33 
f 57/117/33 58/118/33 59/119/33 
f 33/93/33 57/117/33 59/119/33 
f 32/91/33 33/93/33 59/119/33 
f 60/120/33 32/91/33 59/119/33 
# 116 faces

